#!OML:ASF F:\VICON\USERDATA\INSTALL\rory3\rory3.ASF
:FULLY-SPECIFIED
:DEGREES
64
root 0.9867160920643641 18.053719883076116 32.16040096090363 -0.7313027618339825 1.6991409225627763 2.52486802406489
lfemur -1.3714034773077222 -5.280710854761686 -23.16365252910572
ltibia 47.69817926877693
lfoot -0.6518980761620137 -2.8992925120033153
ltoes -3.9627611858931493
rfemur -21.73779624335105 -1.547117149487768 24.2048446401814
rtibia 24.100700261788504
rfoot 1.6272737255615173 -7.81109253160368
rtoes 0.6386430992326524
lowerback 9.08881705347672 -2.60503500716604 0.7201944282674703
upperback -0.18236547065376807 -3.08005110100262 1.8895717152098204
thorax -4.567541757363424 -1.5717550972422039 2.4096512399505254
lowerneck -16.100823267741916 -3.0228897539045243 -2.6923986397919917
upperneck 21.722832769627956 -3.844505854927208 1.7749602341588084
head 9.6212365326999 -1.8578250501193936 0.558120030178711
lclavicle 1.4727094649066031e-16 2.372157814751376e-16
lhumerus -35.28346894910423 7.048644680796356 78.41884742361387
lradius 21.175351888580156
lwrist 4.630917450936699
lhand -26.394521096329 21.14798733328209
lfingers 7.12502
lthumb 0.30108780671797075 50.58827324617086
rclavicle 1.4522230756957553e-16 2.356541002583622e-16
rhumerus -32.79451546471149 -22.942047786823295 -76.3724027298992
rradius 23.083345404123815
rwrist 6.1265727429802705
rhand -16.329355670522904 21.269283555968258
rfingers 7.12502
rthumb 9.56591369936208 -6.895123227463544
65
root 1.0185909818911743 18.092940912619376 32.8976068434921 -0.4452571791897757 1.5624557989806318 2.8557945625810923
lfemur -1.181130844053591 -5.102398420664295 -24.021365858553402
ltibia 46.55219517113413
lfoot -0.5458517209465574 -4.360333254590523
ltoes -4.684537608422529
rfemur -21.314492890473034 -1.314879170856912 24.187159893667495
rtibia 24.111116975160467
rfoot 1.7443422245636082 -7.497712001312428
rtoes 1.2720177270475075
lowerback 8.945512690722627 -2.487601447247752 0.2243267770466324
upperback -0.26323422012313874 -3.07299644802688 1.7374282085874737
thorax -4.47903265398551 -1.5537188926375882 2.466236450969385
lowerneck -16.07831757463582 -3.019595124166311 -2.7340801172733586
upperneck 21.617846639441634 -3.8171410252498803 1.7029887241479869
head 9.555794724725354 -1.8495234582959525 0.5405173443953875
lclavicle 1.4648630781042888e-16 2.36615233181249e-16
lhumerus -34.88370135924625 6.777879288471794 78.43152157252763
lradius 22.23462539592096
lwrist 5.371885578441451
lhand -26.505892064761206 20.72713237369318
lfingers 7.12502
lthumb 0.0855159374175769 50.19609932809079
rclavicle 1.4481951484120905e-16 2.3534435742364053e-16
rhumerus -32.6572129818064 -22.92409116963068 -76.5933907001329
rradius 23.07673801886645
rwrist 6.367627564076779
rhand -16.274050207305176 21.23800219761535
rfingers 7.12502
rthumb 9.490783451708138 -6.636743565568303
66
root 1.034965150569465 18.087370261510596 33.465664680024545 -0.06959293598799698 1.681808585892846 1.8665393298715973
lfemur -1.429486310237973 -5.141482453805441 -23.59286098583171
ltibia 45.74288216658626
lfoot -0.5093601627343736 -4.847907938713645
ltoes -4.856622972072212
rfemur -20.571249079172496 -1.0780570499225242 24.98245938778604
rtibia 24.64687783723916
rfoot 0.6529054931483529 -6.961629124674991
rtoes 3.622092133238845
lowerback 8.877487326002278 -2.511904605972623 0.9426390251945462
upperback -0.3305173845747251 -2.987829771520457 1.7809652991617262
thorax -4.493742250981622 -1.5413939196597355 2.237594016278114
lowerneck -16.106029442058478 -3.0131000843764855 -2.873831007782451
upperneck 21.470576301572553 -3.8179159005166388 1.6675978402091587
head 9.482778347845164 -1.8601348414334948 0.5718078308410554
lclavicle 1.4632648031992042e-16 2.3649215745055723e-16
lhumerus -34.32433731898351 6.591323559111902 78.4784473686396
lradius 23.11483613766957
lwrist 4.708081583699609
lhand -26.43079197554853 20.381016417508636
lfingers 7.12502
lthumb 0.20749566777602602 50.12979603201942
rclavicle 1.437080813939067e-16 2.344897614824342e-16
rhumerus -32.32240676752831 -22.73543004957408 -76.71403275079948
rradius 22.997494301174292
rwrist 6.4520881286707406
rhand -16.39808701982266 21.52176639613692
rfingers 7.12502
rthumb 9.278764986026065 -6.55837117007941
67
root 1.0494868931180361 18.05733668930251 33.74318777204428 0.027449841837697164 1.191339363088137 0.61448089446251
lfemur -1.1864607492309975 -4.446997515359101 -22.675268473699678
ltibia 44.4347857746897
lfoot -1.1500069020610546 -4.537248520658029
ltoes -6.5843996271597325
rfemur -19.860227833769024 -0.329003097550725 25.85831513300399
rtibia 25.7930124820883
rfoot -0.9004690386759489 -6.594442863556903
rtoes 5.277478271592246
lowerback 8.80164383389317 -2.3864397829495263 1.6313855026134094
upperback -0.311553585172021 -2.7682433168122556 1.8207044997020996
thorax -4.504082372091055 -1.4636768709367285 2.0541497970998357
lowerneck -16.10337868453565 -2.9750454657689467 -2.872445830854005
upperneck 21.267393864141017 -3.7508716508943505 1.5568926703578878
head 9.421134228219564 -1.8330887233207551 0.5634862715765443
lclavicle 1.4602849621334755e-16 2.362616118397238e-16
lhumerus -33.65578116279382 6.262130726862204 78.62222894925092
lradius 24.103622744977766
lwrist 4.566466718109405
lhand -26.733788795969062 20.192892460829373
lfingers 7.12502
lthumb -0.06034516446998728 50.00843728504472
rclavicle 1.4339106464999203e-16 2.342460604492745e-16
rhumerus -31.69180916942033 -21.977348490425644 -77.01510846181603
rradius 22.79809590415422
rwrist 6.871347240712799
rhand -16.57729823742317 21.690658376075568
rfingers 7.12502
rthumb 9.122281456588006 -6.402045872057945
68
root 1.047971057974707 18.03490205783395 34.31640648382126 -0.011261091211251628 -0.12077312007619412 -0.6070149237217961
lfemur -1.2392843752213736 -3.0518962996261108 -21.445798968556172
ltibia 43.2857298600365
lfoot -1.9088827534714001 -4.11003844170606
ltoes -6.540019865710979
rfemur -18.929856992860287 1.2744981393533976 26.68766327689282
rtibia 26.746305530691394
rfoot -2.735352587677119 -5.816955198457398
rtoes 6.5718700860532575
lowerback 8.752709751450013 -1.9172032352268058 2.10942662937228
upperback -0.34982645057233025 -2.183525924190882 1.8828495541580987
thorax -4.641073558987163 -1.1785735906673347 1.8808809314301709
lowerneck -16.08893978142489 -2.950234371804718 -2.8556502309099794
upperneck 21.097233299075786 -3.7108717639729907 1.4327920337877869
head 9.37886871556026 -1.812299062599459 0.5255580361361559
lclavicle 1.4504066456145183e-16 2.355045930442887e-16
lhumerus -32.891004559895585 5.924832839370043 78.83935886811781
lradius 25.12126461507575
lwrist 3.5858847928693898
lhand -26.823305030597606 20.145981927637727
lfingers 7.12502
lthumb -0.2634758548261287 50.12246987287377
rclavicle 1.4267845912161382e-16 2.3369802719390737e-16
rhumerus -30.812626142229796 -20.80958268728197 -77.39509773777628
rradius 22.39787399025381
rwrist 7.5989855547764
rhand -16.811889327698175 21.952584624892765
rfingers 7.12502
rthumb 8.940760619232273 -6.515813003061751
69
root 1.0594079432669021 17.9820930101096 35.158372963159565 -0.21673885320991237 -0.7545241466869166 -0.6395258962056498
lfemur -1.3998149013287202 -2.4432471663559445 -20.955595090719598
ltibia 42.466434687392386
lfoot -3.150679154035069 -3.4688358993859927
ltoes -4.232819938839679
rfemur -17.991779191801022 2.094397339993341 26.891337456912883
rtibia 28.22532548522161
rfoot -5.01942519464628 -4.911863397663078
rtoes 6.824942417915013
lowerback 8.789576492793175 -1.6395985691922623 2.122799914247161
upperback -0.3407553457077648 -1.8646347382736992 1.7853988178007634
thorax -4.703598729465497 -0.9966595652068324 1.841892588735528
lowerneck -16.111420846930454 -2.927258240473161 -2.8775395297334514
upperneck 20.891983406697022 -3.671851708945914 1.4076481926181428
head 9.286678943342547 -1.796589084342416 0.5505868044452009
lclavicle 1.4490249707427516e-16 2.3539361325102793e-16
lhumerus -32.18697720631466 5.582649261900717 79.12118198585314
lradius 26.312623209773058
lwrist 3.0692135715324
lhand -27.08265535092895 19.9529608773913
lfingers 7.12502
lthumb -0.625479160371792 50.10182076814239
rclavicle 1.4297217882075152e-16 2.3392392061485125e-16
rhumerus -29.732921353475287 -19.301108012571305 -77.65830083239707
rradius 22.055948773477258
rwrist 8.33123454266272
rhand -17.09131734905985 21.902681426335867
rfingers 7.12502
rthumb 8.757692411824646 -6.918733805736102
70
root 1.0686938094166683 17.92914578547051 36.041141298494296 -0.8577040141912551 -0.24253651649714936 0.5114410280500825
lfemur -1.23756220915355 -2.9764589241693056 -21.466188679185954
ltibia 41.951179460394854
lfoot -4.465118725671637 -2.491954251401326
ltoes -3.34085779283593
rfemur -17.257288270829918 1.5889154021875942 26.185387783073665
rtibia 30.648442433823924
rfoot -7.7644710237365855 -4.903142977778517
rtoes 7.0076808577461875
lowerback 9.134217072503318 -1.665587227553543 1.4282731983789698
upperback -0.26011417599391196 -1.9995899683265907 1.560978778059995
thorax -4.810553289078622 -1.0461325650101145 1.9827005734063894
lowerneck -16.132534796555603 -2.9122067996203453 -2.874479342484454
upperneck 20.75163440601972 -3.656019106395384 1.4560734008587797
head 9.197667658952222 -1.7855256683551364 0.5915457998557715
lclavicle 1.4642778692461183e-16 2.3656363626140987e-16
lhumerus -31.4412241350598 5.017857967965907 79.44217181773361
lradius 27.58437925055069
lwrist 3.519828463979886
lhand -27.695988313557525 19.788557993450876
lfingers 7.12502
lthumb -1.2577813725367104 50.05692756623394
rclavicle 1.430113650720798e-16 2.339541311990757e-16
rhumerus -28.608457742202578 -17.715118623799054 -78.17476811401093
rradius 21.960329022409866
rwrist 8.7947054366803
rhand -17.384067782214593 21.822096773306264
rfingers 7.12502
rthumb 8.548800134511364 -7.254994163823901
71
root 1.047631151730466 17.86434882281952 36.54169706004279 -2.0086529301680924 -0.13604846052470831 0.9697610040092
lfemur -1.01882042046595 -3.0750272378988117 -21.478477668496815
ltibia 41.690702386184014
lfoot -5.721360451355844 -1.4079669275049307
ltoes -1.24283680630221
rfemur -16.87264178309129 1.2833125707537825 26.06807417148785
rtibia 33.90019940402712
rfoot -10.994513864734662 -5.648187830530627
rtoes 6.429890242992839
lowerback 9.749209300368546 -1.5264905752249636 0.9953080606849583
upperback -0.13456101649847202 -1.8367732370803047 1.4826444276352069
thorax -5.036284879623682 -0.9300588605616629 2.1860761362338916
lowerneck -16.113645270275633 -2.9041254737414475 -2.818901527648547
upperneck 20.67977541330938 -3.6506411460488204 1.381603718797043
head 9.16603897619184 -1.780747386650913 0.5565291097168235
lclavicle 1.4619674065854028e-16 2.363831053892884e-16
lhumerus -30.57008689335069 4.328206361150343 79.75808541941244
lradius 28.565895618610284
lwrist 4.20830997247273
lhand -28.392000772944847 19.747131632549255
lfingers 7.12502
lthumb -2.063520962903706 49.97324968910941
rclavicle 1.433988002705037e-16 2.3425212899195244e-16
rhumerus -27.4980510080037 -16.74549893493293 -78.50853043783283
rradius 21.852267664752176
rwrist 8.885920720651317
rhand -17.669186139133274 21.753056036830642
rfingers 7.12502
rthumb 8.326941211744492 -7.333339823094731
